<svg width="30" height="31" viewBox="0 0 30 31" fill="none" xmlns="http://www.w3.org/2000/svg">
<g filter="url(#filter0_d_1_254)">
<path d="M20.5 8.99891C19.6047 8.99853 18.7233 9.21997 17.9345 9.64344C17.8626 9.45386 17.7346 9.29068 17.5677 9.17555C17.4008 9.06043 17.2027 8.99882 17 8.99891H13C12.8686 8.99883 12.7386 9.02465 12.6172 9.07488C12.4958 9.1251 12.3856 9.19876 12.2927 9.29164C12.1998 9.38451 12.1262 9.49478 12.0759 9.61614C12.0257 9.7375 11.9999 9.86757 12 9.99891V21.9989C11.9999 22.1303 12.0257 22.2603 12.0759 22.3817C12.1262 22.503 12.1998 22.6133 12.2927 22.7062C12.3856 22.7991 12.4958 22.8727 12.6172 22.9229C12.7386 22.9732 12.8686 22.999 13 22.9989H17C17.1313 22.999 17.2614 22.9732 17.3827 22.9229C17.5041 22.8727 17.6144 22.7991 17.7072 22.7062C17.8001 22.6133 17.8738 22.503 17.924 22.3817C17.9742 22.2603 18 22.1303 18 21.9989V16.4989C18 16.2337 18.1053 15.9793 18.2929 15.7918C18.4804 15.6043 18.7348 15.4989 19 15.4989C19.2652 15.4989 19.5195 15.6043 19.7071 15.7918C19.8946 15.9793 20 16.2337 20 16.4989V21.9989C19.9999 22.1303 20.0257 22.2603 20.0759 22.3817C20.1262 22.503 20.1998 22.6133 20.2927 22.7062C20.3856 22.7991 20.4958 22.8727 20.6172 22.9229C20.7386 22.9732 20.8686 22.999 21 22.9989H25C25.1313 22.999 25.2614 22.9732 25.3827 22.9229C25.5041 22.8727 25.6144 22.7991 25.7072 22.7062C25.8001 22.6133 25.8738 22.503 25.924 22.3817C25.9742 22.2603 26 22.1303 26 21.9989V14.4989C25.9982 13.0408 25.4181 11.6429 24.3871 10.6118C23.356 9.58077 21.9581 9.00072 20.5 8.99891ZM24 20.9989H22V16.4989C22 15.7033 21.6839 14.9402 21.1213 14.3776C20.5587 13.815 19.7956 13.4989 19 13.4989C18.2043 13.4989 17.4413 13.815 16.8786 14.3776C16.316 14.9402 16 15.7033 16 16.4989V20.9989H14V10.9989H16V11.702C16.0001 11.9092 16.0645 12.1113 16.1844 12.2803C16.3043 12.4493 16.4737 12.5769 16.6692 12.6455C16.8647 12.7141 17.0767 12.7203 17.2759 12.6633C17.4751 12.6062 17.6517 12.4887 17.7812 12.327C18.23 11.7571 18.8456 11.3415 19.542 11.1383C20.2384 10.9351 20.9808 10.9544 21.6657 11.1936C22.3506 11.4328 22.9436 11.8799 23.3621 12.4725C23.7806 13.065 24.0036 13.7735 24 14.4989V20.9989ZM9.99997 8.99891H5.99997C5.86863 8.99883 5.73856 9.02465 5.6172 9.07488C5.49584 9.1251 5.38557 9.19876 5.2927 9.29164C5.19982 9.38451 5.12617 9.49478 5.07594 9.61614C5.02571 9.7375 4.9999 9.86757 4.99997 9.99891V21.9989C4.99989 22.1303 5.02571 22.2603 5.07594 22.3817C5.12616 22.503 5.19982 22.6133 5.29269 22.7062C5.38557 22.7991 5.49584 22.8727 5.6172 22.9229C5.73856 22.9732 5.86863 22.999 5.99997 22.9989H9.99997C10.1313 22.999 10.2614 22.9732 10.3827 22.9229C10.5041 22.8727 10.6144 22.7991 10.7072 22.7062C10.8001 22.6133 10.8738 22.503 10.924 22.3817C10.9742 22.2603 11 22.1303 11 21.9989V9.99891C11 9.86757 10.9742 9.7375 10.924 9.61614C10.8738 9.49478 10.8001 9.38451 10.7072 9.29164C10.6144 9.19876 10.5041 9.1251 10.3827 9.07488C10.2614 9.02465 10.1313 8.99883 9.99997 8.99891ZM8.99997 20.9989H6.99997V10.9989H8.99997V20.9989ZM8.01462 1.54191C7.57698 1.51571 7.13859 1.57881 6.7261 1.72735C6.31361 1.8759 5.93564 2.1068 5.61519 2.406C5.29473 2.70521 5.03849 3.06646 4.86203 3.46781C4.68557 3.86915 4.59259 4.3022 4.58875 4.7406C4.5849 5.17901 4.67027 5.61361 4.83966 6.01799C5.00904 6.42237 5.25891 6.78807 5.57407 7.09285C5.88922 7.39763 6.26308 7.63512 6.6729 7.79089C7.08272 7.94665 7.51994 8.01742 7.95797 7.99891H7.98629C8.42509 8.02497 8.86459 7.96129 9.27795 7.81176C9.6913 7.66223 10.0698 7.42998 10.3904 7.12922C10.711 6.82845 10.9668 6.46548 11.1424 6.06249C11.3179 5.65949 11.4095 5.22494 11.4114 4.78537C11.4133 4.3458 11.3256 3.91046 11.1536 3.50594C10.9816 3.10142 10.7289 2.73622 10.411 2.43266C10.0931 2.12909 9.7166 1.89353 9.30457 1.74038C8.89255 1.58723 8.45362 1.5197 8.01461 1.54191H8.01462ZM7.9863 5.99891H7.95797C7.78504 6.01991 7.60961 6.00369 7.44346 5.95134C7.27731 5.89899 7.12427 5.81171 6.99461 5.69537C6.86495 5.57903 6.76167 5.43631 6.69168 5.27678C6.6217 5.11726 6.58664 4.94461 6.58884 4.77042C6.58884 4.02432 7.14841 3.5419 8.01462 3.5419C8.18932 3.51861 8.36698 3.53303 8.53564 3.58418C8.70429 3.63534 8.86003 3.72204 8.99236 3.83845C9.12468 3.95486 9.23053 4.09828 9.30276 4.25904C9.37499 4.4198 9.41193 4.59418 9.4111 4.77042C9.4111 5.51651 8.85153 5.99891 7.9863 5.99891Z" fill="#232E35"/>
</g>
<defs>
<filter id="filter0_d_1_254" x="-1" y="0" width="32" height="32" filterUnits="userSpaceOnUse" color-interpolation-filters="sRGB">
<feFlood flood-opacity="0" result="BackgroundImageFix"/>
<feColorMatrix in="SourceAlpha" type="matrix" values="0 0 0 0 0 0 0 0 0 0 0 0 0 0 0 0 0 0 127 0" result="hardAlpha"/>
<feOffset dy="4"/>
<feGaussianBlur stdDeviation="2"/>
<feComposite in2="hardAlpha" operator="out"/>
<feColorMatrix type="matrix" values="0 0 0 0 0 0 0 0 0 0 0 0 0 0 0 0 0 0 0.25 0"/>
<feBlend mode="normal" in2="BackgroundImageFix" result="effect1_dropShadow_1_254"/>
<feBlend mode="normal" in="SourceGraphic" in2="effect1_dropShadow_1_254" result="shape"/>
</filter>
</defs>
</svg>
